<?xml version="1.0" standalone="no"?>
<!DOCTYPE svg PUBLIC "-//W3C//DTD SVG 20010904//EN"
 "http://www.w3.org/TR/2001/REC-SVG-20010904/DTD/svg10.dtd">
<svg version="1.0" xmlns="http://www.w3.org/2000/svg"
 width="300.000000pt" height="146.000000pt" viewBox="0 0 300.000000 146.000000" 
 preserveAspectRatio="xMidYMid meet">
<metadata>
Created by potrace 1.10, written by Peter Selinger 2001-2011
</metadata>
<g transform="translate(0.000000,146.000000) scale(0.100000,-0.100000)"
fill="#FF0000" stroke="none">
<path d="M310 689 l0 -321 53 7 c28 4 52 8 52 9 0 0 -2 80 -5 176 -6 210 -22
213 -30 6 -3 -100 -9 -141 -18 -144 -10 -3 -12 53 -10 270 4 348 10 353 103
80 24 -70 75 -155 75 -125 0 6 -27 90 -60 185 -33 95 -60 174 -60 175 0 2 -22
3 -50 3 l-50 0 0 -321z"/>
<path d="M540 835 c0 -162 5 -197 26 -164 3 6 8 70 11 143 4 137 9 169 21 149
12 -19 4 -505 -8 -517 -22 -22 -44 13 -87 134 -23 68 -52 133 -63 144 -11 11
-20 16 -20 11 1 -6 25 -82 53 -170 58 -175 57 -175 133 -160 l34 6 0 299 0
300 -50 0 -50 0 0 -175z"/>
<path d="M740 714 l0 -297 83 7 c45 4 106 9 135 12 l52 6 0 49 c0 40 -3 47
-17 45 -41 -8 -152 -10 -153 -3 0 4 0 38 0 76 l0 69 65 -6 65 -5 0 55 0 54
-64 -4 -64 -4 -4 71 -3 71 88 0 87 0 0 50 0 50 -135 0 -135 0 0 -296z m218
247 c2 -6 0 -11 -5 -12 -4 0 -30 -2 -57 -5 -72 -6 -96 -31 -96 -105 0 -50 3
-60 26 -78 15 -12 41 -21 60 -21 18 0 35 -4 38 -9 7 -11 -17 -21 -50 -21 -14
0 -36 -11 -49 -25 -21 -20 -25 -34 -25 -85 0 -52 4 -65 26 -87 22 -22 31 -24
73 -20 45 5 83 -4 64 -16 -4 -3 -46 -8 -92 -12 -66 -6 -85 -5 -92 6 -10 16
-11 469 -1 485 11 17 29 20 106 18 41 -1 72 -6 74 -13z"/>
<path d="M1080 960 l0 -50 53 0 52 0 -3 -230 -3 -230 53 0 53 0 -3 230 -3 230
56 0 55 0 0 50 0 50 -155 0 -155 0 0 -50z m187 10 c53 0 74 -3 71 -12 -3 -7
-18 -15 -34 -20 -51 -14 -54 -26 -54 -229 0 -103 -3 -194 -6 -203 -17 -44 -24
14 -24 193 0 182 -2 199 -20 218 -10 12 -33 24 -50 28 -16 4 -30 10 -30 15 0
10 39 19 58 14 8 -2 47 -4 89 -4z"/>
<path d="M1450 730 l0 -280 50 0 50 0 0 115 0 115 70 0 70 0 0 50 0 50 -70 0
-70 0 0 65 0 65 90 0 90 0 0 50 0 50 -140 0 -140 0 0 -280z m230 226 c0 -8
-19 -13 -56 -14 -32 0 -66 -7 -80 -17 -21 -14 -24 -23 -24 -80 0 -83 12 -97
85 -99 46 -1 38 -28 -9 -32 -63 -5 -76 -25 -76 -113 0 -69 -11 -113 -24 -100
-4 4 -8 223 -6 411 l0 57 68 3 c85 4 122 -1 122 -16z"/>
<path d="M1792 729 l3 -282 60 -2 c33 -2 93 -5 134 -7 l75 -3 1 47 1 47 -89 7
-88 7 3 233 3 234 -53 0 -52 0 2 -281z m67 224 c-1 -5 -1 -97 0 -206 l1 -198
26 -24 c22 -20 37 -25 83 -25 46 0 53 -2 41 -13 -11 -10 -37 -12 -95 -8 l-80
6 -3 238 c-2 206 0 237 13 237 8 0 14 -3 14 -7z"/>
<path d="M2150 721 c0 -319 -4 -301 66 -301 l34 0 0 295 0 295 -50 0 -50 0 0
-289z m50 -245 c-7 -7 -10 67 -10 230 0 133 3 244 8 248 4 4 8 -99 10 -230 1
-152 -1 -241 -8 -248z"/>
<path d="M2339 993 c5 -10 32 -78 60 -152 l52 -134 -57 -131 c-31 -72 -61
-137 -67 -144 -13 -17 -10 -18 50 -25 l52 -6 30 74 c17 40 31 78 31 84 0 31
19 1 49 -79 18 -50 36 -92 40 -94 3 -2 30 -7 59 -11 l54 -7 -15 28 c-8 16 -38
92 -66 168 l-53 139 48 116 c26 64 56 133 66 154 l18 37 -57 0 -58 0 -30 -81
c-16 -44 -32 -82 -36 -84 -3 -3 -20 34 -38 80 l-32 85 -55 0 c-49 0 -54 -2
-45 -17z m105 -93 c13 -25 33 -53 43 -63 19 -17 21 -16 46 3 15 12 32 39 38
61 13 40 34 67 46 55 4 -3 -12 -52 -35 -109 -62 -152 -62 -151 -12 -272 33
-83 50 -130 50 -143 0 -30 -38 17 -52 65 -7 26 -25 56 -42 70 -28 23 -29 23
-48 6 -11 -10 -31 -42 -44 -71 -14 -33 -29 -52 -36 -49 -17 6 -15 13 38 136
24 57 44 111 44 120 0 10 -16 58 -35 107 -58 147 -58 194 -1 84z"/>
</g>
</svg>
